<svg id="Layer_1" enable-background="new 0 0 256 256" height="512" viewBox="0 0 256 256" width="512" xmlns="http://www.w3.org/2000/svg"><g><path d="m137.469 231.449c-.686 0-1.371-.083-2.04-.251l-74.556-18.67c-1.339-.335-2.153-1.693-1.818-3.033.336-1.339 1.694-2.15 3.033-1.818l74.556 18.67c.734.185 1.523.117 2.216-.189l88.659-39.134c1.26-.557 2.738.013 3.297 1.278.558 1.263-.015 2.739-1.277 3.296l-88.659 39.134c-1.076.476-2.243.717-3.411.717z" fill="#ebe7f2"/><path d="m53.459 222.679h-27.128c-1.381 0-2.5-1.119-2.5-2.5s1.119-2.5 2.5-2.5h27.128c1.381 0 2.5 1.119 2.5 2.5s-1.119 2.5-2.5 2.5z" fill="#ebe7f2"/><g fill="#f9b087"><path d="m219.422 171.917c-.347 0-.698-.072-1.035-.226-1.256-.572-1.811-2.055-1.238-3.312 5.816-12.763 8.765-26.404 8.765-40.546 0-27.098-11.385-53.229-31.235-71.695-1.011-.94-1.067-2.522-.127-3.533.938-1.01 2.519-1.069 3.533-.128 20.863 19.408 32.829 46.874 32.829 75.356 0 14.862-3.101 29.202-9.214 42.62-.421.921-1.328 1.464-2.278 1.464z"/><path d="m31.284 157.326c-1.094 0-2.099-.724-2.407-1.83-2.496-8.964-3.761-18.271-3.761-27.662 0-28.449 11.943-55.894 32.766-75.297 1.009-.941 2.591-.886 3.533.125.941 1.01.885 2.592-.125 3.533-19.812 18.461-31.174 44.572-31.174 71.639 0 8.938 1.204 17.793 3.578 26.321.371 1.33-.408 2.708-1.738 3.079-.224.062-.45.092-.672.092z"/><path d="m191.382 171.918c-.472 0-.948-.133-1.372-.412-1.153-.759-1.474-2.309-.715-3.462 7.854-11.944 12.006-25.849 12.006-40.21 0-5.868-.694-11.702-2.063-17.342-.325-1.342.498-2.693 1.84-3.02 1.343-.324 2.693.499 3.02 1.84 1.463 6.026 2.204 12.258 2.204 18.522 0 15.341-4.436 30.195-12.828 42.958-.482.73-1.28 1.126-2.092 1.126z"/><path d="m57.176 157.327c-1.007 0-1.957-.613-2.336-1.61-3.392-8.897-5.112-18.278-5.112-27.883 0-6.244.737-12.458 2.192-18.472.325-1.341 1.673-2.166 3.018-1.842 1.342.324 2.167 1.675 1.842 3.018-1.361 5.628-2.052 11.448-2.052 17.296 0 8.994 1.609 17.775 4.784 26.102.492 1.29-.155 2.735-1.445 3.227-.294.111-.595.164-.891.164z"/></g><g fill="#846f75"><path d="m230.842 188.364c-3.455-8.429-12.655-12.85-21.392-10.277l-54.326 15.971c.469-4.103.328-5.945.254-6.1-.978-5.92-5.535-10.72-11.605-12.227l-42.132-10.53c-3.151-.776-6.397-.545-9.385.669l-28.272 11.458v-8.138c0-2.779-2.261-5.04-5.04-5.04h-30.073c-2.779 0-5.04 2.261-5.04 5.04v61.288c0 2.779 2.261 5.04 5.04 5.04h30.072c2.779 0 5.04-2.261 5.04-5.04v-1.925l71.232 17.585c1.169.289 2.386.431 3.606.431 2.133 0 4.276-.435 6.197-1.284l76.616-34.006c8.826-3.916 12.87-13.982 9.208-22.915zm-11.236 18.345-76.613 34.005c-2.022.895-4.422 1.103-6.58.57l-74.331-18.351c-.74-.183-1.535-.017-2.141.459-.605.474-.958 1.2-.958 1.968l-.04 5.158-30.112-.04.04-61.328 30.112.04c-.001 7.819-.004 37.014-.002 45.354.079 3.287 4.916 3.305 5 0v-31.82l30.154-12.221c2.007-.815 4.188-.971 6.301-.45l42.127 10.529c4.136 1.026 7.229 4.241 7.881 8.188.157 1.072-.064 6.288-.69 7.75-1.608 3.753-5.63 4.511-10.136 3.759-4.692-.786-10.666-1.644-15.324-2.372-3.268-.433-4.022 4.346-.777 4.939 4.635.722 10.619 1.584 15.277 2.364 5.732 1.065 11.323-.678 14.811-5.495l57.255-16.832c6.275-1.842 12.876 1.328 15.354 7.376 2.631 6.414-.273 13.639-6.608 16.45z"/><path d="m43.903 176.08c-4.398 0-7.977 3.578-7.977 7.977.401 10.568 15.554 10.566 15.954 0-.001-4.399-3.579-7.977-7.977-7.977zm0 10.954c-3.925-.103-3.925-5.852 0-5.954 3.925.103 3.923 5.852 0 5.954z"/><path d="m83.431 118.653c15.184 0 27.537-12.353 27.537-27.537 0-5.747-1.772-11.087-4.796-15.507l-18.184-28.537h23.605c.725 4.773 3.475 8.884 7.358 11.417v75.826h-39.147c-3.112 0-5.644 2.532-5.644 5.644v10.398c0 1.381 1.119 2.5 2.5 2.5h102.678c1.381 0 2.5-1.119 2.5-2.5v-10.398c0-3.112-2.531-5.644-5.643-5.644h-39.148v-75.825c3.884-2.534 6.634-6.644 7.359-11.418h23.605l-18.181 28.533c-3.025 4.421-4.799 9.762-4.799 15.512 0 15.184 12.354 27.537 27.537 27.537s27.537-12.353 27.537-27.537c0-5.744-1.77-11.081-4.79-15.499l-20.639-32.389c-.458-.701-1.267-1.149-2.108-1.157h-28.162c-3.264-18.725-29.557-18.712-32.814 0h-28.161c-.841.007-1.65.455-2.108 1.157l-20.631 32.376c-3.025 4.421-4.799 9.762-4.799 15.511 0 15.184 12.354 27.537 27.538 27.537zm-8.297-6.589v-10.705c0-1.701 1.384-3.084 3.084-3.084h10.425c1.701 0 3.084 1.384 3.084 3.084v10.705c-5.081 2.102-11.512 2.102-16.593 0zm21.594-2.767v-7.938c0-4.458-3.626-8.084-8.084-8.084h-10.426c-4.458 0-8.084 3.626-8.084 8.084v7.938c-17.327-12.831-8.698-40.431 13.297-40.719 21.996.288 30.621 27.895 13.297 40.719zm-13.297-60.073 10.467 16.427c-6.383-2.741-14.552-2.741-20.935 0zm93.408 90.734v7.898h-97.678v-7.898c0-.355.289-.644.644-.644h96.392c.354.001.642.29.642.644zm-44.791-5.643h-8.096v-73.647c2.576.684 5.521.684 8.096 0zm50.989-68.664c-6.383-2.741-14.552-2.741-20.935 0l10.467-16.427zm-18.765 46.413v-10.705c0-1.701 1.384-3.084 3.085-3.084h10.424c1.701 0 3.085 1.384 3.085 3.084v10.705c-5.081 2.102-11.512 2.102-16.594 0zm21.594-2.767v-7.938c0-4.458-3.627-8.084-8.085-8.084h-10.424c-4.458 0-8.085 3.626-8.085 8.084v7.938c-17.326-12.831-8.697-40.431 13.297-40.719 21.997.288 30.621 27.895 13.297 40.719zm-57.866-76.341c6.405 0 11.616 5.211 11.616 11.616-.638 15.41-22.596 15.406-23.232 0 0-6.405 5.211-11.616 11.616-11.616z"/><path d="m83.431 72.006c-5.074 0-9.202 4.128-9.202 9.202.496 12.203 17.908 12.2 18.403 0 0-5.074-4.128-9.202-9.201-9.202zm0 13.404c-5.553-.176-5.551-8.228 0-8.403 5.552.176 5.55 8.227 0 8.403z"/><path d="m172.569 72.006c-5.073 0-9.201 4.128-9.201 9.202.497 12.204 17.908 12.2 18.402 0 .001-5.074-4.127-9.202-9.201-9.202zm0 13.404c-5.552-.176-5.551-8.228 0-8.403 5.552.176 5.551 8.227 0 8.403z"/></g></g></svg>