<?xml version="1.0" encoding="UTF-8"?>
<!DOCTYPE svg PUBLIC "-//W3C//DTD SVG 1.1//EN" "http://www.w3.org/Graphics/SVG/1.1/DTD/svg11.dtd">
<!-- Creator: CorelDRAW 2021 (64-Bit) -->
<svg xmlns="http://www.w3.org/2000/svg" xml:space="preserve" width="200px" height="125px" version="1.1" style="shape-rendering:geometricPrecision; text-rendering:geometricPrecision; image-rendering:optimizeQuality; fill-rule:evenodd; clip-rule:evenodd"
viewBox="0 0 200 124.58"
 xmlns:xlink="http://www.w3.org/1999/xlink"
 xmlns:xodm="http://www.corel.com/coreldraw/odm/2003">
 <defs>
  <style type="text/css">
   <![CDATA[
    .str0 {stroke:#E6E7E8;stroke-width:0.24;stroke-miterlimit:22.9256}
    .fil1 {fill:none}
    .fil0 {fill:#FEFEFE}
   ]]>
  </style>
 </defs>
 <g id="Camada_x0020_1">
  <metadata id="CorelCorpID_0Corel-Layer"/>
  <g>
   <path class="fil0" d="M199.54 124.45l-35.86 0 0 -51.27 36.2 -52.61 0 103.88 -0.34 0zm-199.42 -123.15l0 35.02 43.23 0 0 88.13 35.53 0 0 -88.13 20.77 0 41.23 53.62 58.98 -83.45 0.02 -6.35 -34.54 -0.02 -24.34 31.38 -23.92 -30.2 -116.96 0z"/>
   <path id="_1" class="fil1 str0" d="M199.54 124.45l-35.86 0 0 -51.27 36.2 -52.61 0 103.88m-199.76 -123.15l0 35.02 43.23 0 0 88.13 35.53 0 0 -88.13 20.77 0 41.23 53.62 58.98 -83.45 0.02 -6.35 -34.54 -0.02 -24.34 31.38 -23.92 -30.2 -116.96 0z"/>
  </g>
 </g>
</svg>
