<?xml version="1.0" encoding="UTF-8"?>
<!DOCTYPE svg PUBLIC "-//W3C//DTD SVG 1.1//EN" "http://www.w3.org/Graphics/SVG/1.1/DTD/svg11.dtd">
<!-- Creator: CorelDRAW 2021 (64-Bit) -->
<svg xmlns="http://www.w3.org/2000/svg" xml:space="preserve" width="200px" height="125px" version="1.1" shape-rendering="geometricPrecision" text-rendering="geometricPrecision" image-rendering="optimizeQuality" fill-rule="evenodd" clip-rule="evenodd"
viewBox="0 0 1932 1203.41"
 xmlns:xlink="http://www.w3.org/1999/xlink"
 xmlns:xodm="http://www.corel.com/coreldraw/odm/2003">
 <g id="Camada_x0020_1">
  <metadata id="CorelCorpID_0Corel-Layer"/>
  <g>
   <path fill="#FEFEFE" d="M1927.58 1202.23l-346.39 0 0 -495.31 349.63 -508.25 0 1003.56 -3.24 0zm-1926.4 -1189.72l0 338.3 417.62 0 0 851.42 343.15 0 0 -851.42 200.71 0 398.19 517.97 569.77 -806.09 0.2 -61.31 -333.64 -0.2 -235.12 303.09 -231.06 -291.76 -1129.82 0z"/>
   <path id="_1" fill="none" stroke="#E6E7E8" stroke-width="2.36" stroke-miterlimit="22.9256" d="M1927.58 1202.23l-346.39 0 0 -495.31 349.63 -508.25 0 1003.56m-1929.64 -1189.72l0 338.3 417.62 0 0 851.42 343.15 0 0 -851.42 200.71 0 398.19 517.97 569.77 -806.09 0.2 -61.31 -333.64 -0.2 -235.12 303.09 -231.06 -291.76 -1129.82 0z"/>
  </g>
 </g>
</svg>
